<?xml version="1.0" encoding="utf-8"?>
<!-- Generator: Adobe Illustrator 23.0.4, SVG Export Plug-In . SVG Version: 6.00 Build 0)  -->
<svg version="1.1" id="Layer_1" xmlns="http://www.w3.org/2000/svg" xmlns:xlink="http://www.w3.org/1999/xlink" x="0px" y="0px"
	 viewBox="0 0 100 100" style="enable-background:new 0 0 100 100;" xml:space="preserve">
<style type="text/css">
	.st0{fill:#F6E7E2;}
</style>
<g>
	<g>
		<path class="st0" d="M55.6,50.9c-0.3,0-0.5-0.1-0.7-0.3c-0.3-0.4-0.3-1,0.1-1.3l29.1-23.6c6-4.9,9.5-12,9.8-19.7
			c-7.7,0.3-14.8,3.8-19.7,9.8L50.7,45c-0.3,0.4-0.9,0.5-1.3,0.1c-0.4-0.3-0.5-0.9-0.1-1.3l23.6-29.1C78.2,8,86.3,4.2,94.9,4.2
			c0.5,0,0.9,0.4,0.9,0.9c0,8.6-3.8,16.6-10.5,22.1L56.2,50.7C56,50.9,55.8,50.9,55.6,50.9z"/>
	</g>
	<g>
		<path class="st0" d="M55.6,56.5c-0.2,0-0.5-0.1-0.7-0.3L43.7,45c-0.2-0.2-0.3-0.5-0.3-0.8c0-0.3,0.2-0.6,0.5-0.7l3.7-1.9
			c0.4-0.2,0.8-0.1,1.1,0.2l9.4,9.4c0.3,0.3,0.4,0.7,0.2,1.1L56.4,56c-0.1,0.3-0.4,0.5-0.7,0.5C55.7,56.5,55.7,56.5,55.6,56.5z
			 M46,44.6l9.4,9.4l1-2l-8.4-8.4L46,44.6z"/>
	</g>
	<g>
		<path class="st0" d="M56.5,68.7c-0.1,0-0.2,0-0.4-0.1c-0.3-0.1-0.6-0.5-0.6-0.9v-4.7c0-0.2,0.1-0.4,0.2-0.6l9.7-12.3
			c0.3-0.3,0.4-0.7,0.4-1.1c0-1-0.8-1.8-1.8-1.8h-3.8c-0.5,0-0.9-0.4-0.9-0.9c0-0.5,0.4-0.9,0.9-0.9h3.8c2,0,3.7,1.7,3.7,3.7
			c0,0.8-0.3,1.6-0.8,2.3l-9.5,12.1v2.1l9.7-9.7c6.4-6.4,9.9-14.9,9.9-24c0-0.5,0.4-0.9,0.9-0.9s0.9,0.4,0.9,0.9
			c0,9.6-3.7,18.5-10.5,25.3L57.2,68.4C57,68.6,56.8,68.7,56.5,68.7z"/>
	</g>
	<g>
		<path class="st0" d="M88.3,23.8c-0.2,0-0.5-0.1-0.7-0.3L76.5,12.3c-0.2-0.2-0.3-0.4-0.3-0.7c0-0.3,0.1-0.5,0.3-0.7
			c5.1-4.4,11.7-6.8,18.4-6.8c0.5,0,0.9,0.4,0.9,0.9c0,6.7-2.4,13.2-6.8,18.4C88.9,23.7,88.6,23.8,88.3,23.8
			C88.4,23.8,88.3,23.8,88.3,23.8z M78.5,11.7l9.7,9.7c3.5-4.4,5.5-9.8,5.7-15.4C88.4,6.3,83,8.3,78.5,11.7z"/>
	</g>
	<g>
		<path class="st0" d="M76.2,28.5c-2.6,0-4.7-2.1-4.7-4.7s2.1-4.7,4.7-4.7c2.6,0,4.7,2.1,4.7,4.7S78.8,28.5,76.2,28.5z M76.2,21
			c-1.5,0-2.8,1.3-2.8,2.8s1.3,2.8,2.8,2.8c1.5,0,2.8-1.3,2.8-2.8S77.7,21,76.2,21z"/>
	</g>
	<g>
		<path class="st0" d="M46,60.3h-5.3c-0.5,0-0.9-0.4-0.9-0.9V54c0-3.9,2.5-7.4,6.3-8.7c0.5-0.2,1,0.1,1.2,0.6c0.2,0.5-0.1,1-0.6,1.2
			c-3,1-5,3.8-5,6.9v4.4H46c3.1,0,5.9-2,6.9-5c0.2-0.5,0.7-0.8,1.2-0.6c0.5,0.2,0.8,0.7,0.6,1.2C53.4,57.8,49.9,60.3,46,60.3z"/>
	</g>
	<g>
		<path class="st0" d="M21.9,95.8c-0.2,0-0.5-0.1-0.7-0.3c-0.4-0.4-0.4-1,0-1.3l28.1-28.1c0.4-0.4,1-0.4,1.3,0c0.4,0.4,0.4,1,0,1.3
			L22.6,95.6C22.4,95.7,22.2,95.8,21.9,95.8z"/>
	</g>
	<g>
		<path class="st0" d="M5.1,79c-0.2,0-0.5-0.1-0.7-0.3c-0.4-0.4-0.4-1,0-1.3l28.1-28.1c0.4-0.4,1-0.4,1.3,0c0.4,0.4,0.4,1,0,1.3
			L5.8,78.7C5.6,78.9,5.3,79,5.1,79z"/>
	</g>
	<g>
		<path class="st0" d="M5.1,95.8c-0.2,0-0.5-0.1-0.7-0.3c-0.4-0.4-0.4-1,0-1.3l30.9-30.9c0.4-0.4,1-0.4,1.3,0c0.4,0.4,0.4,1,0,1.3
			L5.8,95.6C5.6,95.7,5.3,95.8,5.1,95.8z"/>
	</g>
	<g>
		<path class="st0" d="M83.7,67.8c-3.6,0-6.5-2.9-6.5-6.5s2.9-6.5,6.5-6.5s6.5,2.9,6.5,6.5S87.3,67.8,83.7,67.8z M83.7,56.5
			c-2.6,0-4.7,2.1-4.7,4.7c0,2.6,2.1,4.7,4.7,4.7c2.6,0,4.7-2.1,4.7-4.7C88.3,58.6,86.2,56.5,83.7,56.5z"/>
	</g>
	<g>
		<path class="st0" d="M16.3,28.5C9.6,28.5,4.2,23,4.2,16.3S9.6,4.2,16.3,4.2s12.2,5.5,12.2,12.2S23,28.5,16.3,28.5z M16.3,6
			C10.7,6,6,10.7,6,16.3s4.6,10.3,10.3,10.3S26.6,22,26.6,16.3S22,6,16.3,6z"/>
	</g>
	<g>
		<path class="st0" d="M12.6,19.1c-2.6,0-4.7-2.1-4.7-4.7s2.1-4.7,4.7-4.7s4.7,2.1,4.7,4.7S15.2,19.1,12.6,19.1z M12.6,11.6
			c-1.5,0-2.8,1.3-2.8,2.8c0,1.5,1.3,2.8,2.8,2.8s2.8-1.3,2.8-2.8C15.4,12.9,14.1,11.6,12.6,11.6z"/>
	</g>
	<g>
		<circle class="st0" cx="38.8" cy="21.9" r="1.9"/>
	</g>
	<g>
		<circle class="st0" cx="68.7" cy="79.9" r="1.9"/>
	</g>
	<g>
		<path class="st0" d="M37.4,43.5h-4.7c-0.4,0-0.7-0.2-0.9-0.6c-0.1-0.3-0.1-0.8,0.2-1l11.3-11.3c6.7-6.7,16-10.5,25.5-10.5
			c0.5,0,0.9,0.4,0.9,0.9s-0.4,0.9-0.9,0.9c-9.1,0-17.9,3.6-24.2,9.9L35,41.6h2.1l12.1-9.5c0.7-0.5,1.5-0.8,2.3-0.8
			c2,0,3.7,1.7,3.7,3.7v4.1c0,0.5-0.4,0.9-0.9,0.9s-0.9-0.4-0.9-0.9V35c0-1-0.8-1.8-1.8-1.8c-0.4,0-0.8,0.1-1.1,0.4L38,43.3
			C37.9,43.4,37.6,43.5,37.4,43.5z"/>
	</g>
</g>
</svg>
