<?xml version="1.0" encoding="utf-8"?>
<!-- Generator: Adobe Illustrator 23.0.4, SVG Export Plug-In . SVG Version: 6.00 Build 0)  -->
<svg version="1.1" id="Layer_1" xmlns="http://www.w3.org/2000/svg" xmlns:xlink="http://www.w3.org/1999/xlink" x="0px" y="0px"
	 viewBox="0 0 18 18" style="enable-background:new 0 0 18 18;" xml:space="preserve">
<style type="text/css">
	.st0{fill:none;}
	.st1{fill:#F6E7E2;}
</style>
<path class="st0" d="M0,0h18v18H0V0z M0,0h18v18H0V0z M0,0h18v18H0V0z M0,0h18v18H0V0z"/>
<path class="st1" d="M9,5.2c2.1,0,3.8,1.7,3.8,3.8c0,0.5-0.1,0.9-0.3,1.4l2.2,2.2c1.1-0.9,2-2.2,2.6-3.6C15.9,5.7,12.7,3.4,9,3.4
	c-1.1,0-2.1,0.2-3,0.5l1.6,1.6C8.1,5.3,8.5,5.2,9,5.2z M1.5,3.2l1.7,1.7l0.3,0.3C2.3,6.2,1.3,7.5,0.8,9C2,12.3,5.2,14.6,9,14.6
	c1.2,0,2.3-0.2,3.3-0.6l0.3,0.3l2.2,2.2l1-1L2.5,2.2L1.5,3.2z M5.6,7.4l1.2,1.2c0,0.2-0.1,0.3-0.1,0.5c0,1.2,1,2.2,2.2,2.2
	c0.2,0,0.3,0,0.5-0.1l1.2,1.2c-0.5,0.2-1.1,0.4-1.6,0.4c-2.1,0-3.8-1.7-3.8-3.8C5.2,8.4,5.4,7.9,5.6,7.4z M8.9,6.8l2.4,2.4l0-0.1
	c0-1.2-1-2.2-2.2-2.2L8.9,6.8z"/>
</svg>
